<?xml version="1.0" encoding="UTF-8"?>
<svg xmlns="http://www.w3.org/2000/svg" version="1.1" viewBox="0 0 100 100">
  <defs>
    <style>
      .cls-1 {
        fill: #f37a67;
      }

      .cls-2 {
        fill: #64b5f6;
      }

      .cls-3 {
        fill: #fff;
      }

      .cls-4 {
        fill: #f0f0f0;
      }

      .cls-5 {
        fill: #f69779;
      }

      .cls-6 {
        fill: #d7eaf1;
      }

      .cls-7 {
        fill: #051733;
      }

      .cls-8 {
        fill: #333;
      }

      .cls-9 {
        fill: #4749d6;
      }

      .cls-10 {
        fill: #3537a1;
      }
    </style>
  </defs>
  <!-- Generator: Adobe Illustrator 28.7.1, SVG Export Plug-In . SVG Version: 1.2.0 Build 142)  -->
  <g>
    <g id="Capa_1">
      <circle class="cls-4" cx="50" cy="50" r="50"/>
      <circle class="cls-2" cx="50" cy="40" r="20"/>
      <path class="cls-2" d="M25,85c0-20,50-20,50,0"/>
      <path class="cls-8" d="M35,35c0-5,30-5,30,0"/>
      <circle class="cls-8" cx="40" cy="38" r="3"/>
      <circle class="cls-8" cx="60" cy="38" r="3"/>
      <path class="cls-8" d="M40,25c0-10,20-10,20,0"/>
      <g>
        <path class="cls-6" d="M100,50c0,11.9-4.1,22.8-11.1,31.4-3.7,4.6-8.2,8.5-13.2,11.5-1.1.7-2.3,1.3-3.5,1.9-6.7,3.3-14.2,5.2-22.2,5.2s-15.5-1.9-22.2-5.2c-1.2-.6-2.4-1.2-3.5-1.9-5.1-3-9.5-6.9-13.2-11.5C4.1,72.8,0,61.9,0,50,0,22.4,22.4,0,50,0s50,22.4,50,50Z"/>
        <g>
          <path class="cls-7" d="M67.4,26.5c-.1-1.7-1.2-2.3-1.2-2.3,0-1.2-1.2-1.7-1.2-1.7-.4-1.2-1.8-1.5-1.8-1.5-.5-1.2-2.1-1.2-2.1-1.2-.6-1-2.1-.9-2.1-.9-.7-.9-2.6-.8-2.6-.8-.5-1-2.6-.7-2.6-.7-.8-.9-2.3-.2-2.3-.2-.3-1.3-1.6-.3-1.6-.3,0,0-1.2-1-1.6.3,0,0-1.5-.8-2.3.2,0,0-2.1-.3-2.6.7,0,0-1.9,0-2.6.8,0,0-1.5-.2-2.1.9,0,0-1.6,0-2.1,1.2,0,0-1.3.3-1.8,1.5,0,0-1.1.5-1.2,1.7,0,0-1.1.6-1.2,2.3-.1,1.7.5,2.9,3.4,4.2h0c8.8-4.5,19.2-4.5,28,0h0c2.9-1.3,3.5-2.5,3.4-4.2Z"/>
          <path class="cls-7" d="M46.5,20.5h7.1c7.6,0,13.8,6.2,13.8,13.8v4.9h-34.8v-4.9c0-7.6,6.2-13.8,13.8-13.8Z"/>
          <g>
            <path class="cls-9" d="M88.9,81.4c-3.7,4.6-8.2,8.5-13.2,11.5-1.1.7-2.3,1.3-3.5,1.9-6.7,3.3-14.2,5.2-22.2,5.2s-15.5-1.9-22.2-5.2c-1.2-.6-2.4-1.2-3.5-1.9-5.1-3-9.5-6.9-13.2-11.5,1.3-4.5,4.9-8,9.4-9.2l12-3.3,1.3-.3,2.2-.6,4.6-1.3,1.8-10.2v-.2s0-.2,0-.2l.6-3.3,7,2.7,7-2.7.6,3.3.4,2.5.8,4.4.7,3.7,4.6,1.3,2.2.6,1.3.3,12,3.3c4.6,1.3,8.1,4.8,9.4,9.2Z"/>
            <path class="cls-10" d="M66.3,68.5c-.5,2.2-2.7,8.4-12,9.1l-2,7.5c-.3,1-1.2,1.7-2.2,1.7s-2-.7-2.2-1.7l-2-7.5c-9.3-.7-11.5-6.9-12-9.1l2.2-.6,4.6-1.3,2.5-13.9,7,2.7,7-2.7,2.5,13.9,4.6,1.3,2.2.6Z"/>
            <path class="cls-5" d="M64,67.9c-.5,2.4-2.5,7.5-11.6,7.5l-2.5,9.1-2.5-9.1c-9,0-11.1-5.2-11.6-7.5l4.6-1.3,1.8-10.2.7-3.7,7,2.7,7-2.7,1.8,10.1.7,3.7,4.6,1.3Z"/>
            <path class="cls-1" d="M58.8,62.9c-2.3.7-4,.7-4,.7,0,0-7.9,0-12.4-7.2l.7-3.7,7,2.7,7-2.7,1.8,10.1Z"/>
            <path class="cls-5" d="M68.8,37.6c0-.6-.3-1.2-.8-1.6-.4-.4-1-.5-1.6-.5-.6,0-1.1.2-1.6.5,0,0,0-10.4-5.1-10.5-3.3-.2-4.8.8-9.8.8s-6.5-1-9.8-.8c-5,.2-5.1,10.5-5.1,10.5-.5-.2-1-.4-1.6-.5-.6,0-1.1.1-1.6.5-.5.4-.7,1-.8,1.6-.2,1.2.1,2.5.8,3.6s1.7,1.8,3,2.1c2.1,15,15.1,15,15.1,15,0,0,12.9,0,15.1-15,1.2-.3,2.3-1.1,3-2.1s1-2.3.8-3.6Z"/>
          </g>
          <g>
            <path class="cls-10" d="M27.8,94.8c-1.2-.6-2.4-1.2-3.5-1.9l3.2-9.5.4,11.5Z"/>
            <path class="cls-10" d="M75.7,92.9c-1.1.7-2.3,1.3-3.5,1.9l.4-11.5,3.2,9.5Z"/>
          </g>
          <g>
            <path class="cls-1" d="M49.3,37.2v8.8h1.5c2.6,0-1-7.8-1.5-8.8Z"/>
            <g>
              <g>
                <path class="cls-7" d="M60.2,33.8c-2.1-1-4.4-1.2-6.5-.3-.9.4-.5,1.9.4,1.5,1.8-.7,3.6-.7,5.3.2.9.4,1.7-.9.8-1.3Z"/>
                <circle class="cls-7" cx="56.8" cy="37.2" r="1.5"/>
              </g>
              <g>
                <path class="cls-7" d="M39.8,33.8c2.1-1,4.4-1.2,6.5-.3.9.4.5,1.9-.4,1.5-1.8-.7-3.6-.7-5.3.2-.9.4-1.7-.9-.8-1.3Z"/>
                <circle class="cls-7" cx="43.2" cy="37.2" r="1.5"/>
              </g>
            </g>
            <path class="cls-3" d="M45.3,49.6c.5,1.9,2.4,3.3,4.7,3.3s4.2-1.4,4.7-3.3h-9.5Z"/>
          </g>
        </g>
      </g>
    </g>
  </g>
</svg>