<?xml version="1.0" encoding="UTF-8"?>
<svg xmlns="http://www.w3.org/2000/svg" version="1.1" viewBox="0 0 100 100">
  <defs>
    <style>
      .cls-1 {
        fill: #a80060;
      }

      .cls-2 {
        fill: #e44424;
      }

      .cls-3 {
        fill: #f37a67;
      }

      .cls-4 {
        fill: #fff;
      }

      .cls-5 {
        fill: #f0f0f0;
      }

      .cls-6 {
        fill: #f69779;
      }

      .cls-7 {
        fill: #cd3266;
      }

      .cls-8 {
        fill: #d7eaf1;
      }

      .cls-9 {
        fill: #e30081;
      }

      .cls-10 {
        fill: #051733;
      }

      .cls-11 {
        fill: #333;
      }
    </style>
  </defs>
  <!-- Generator: Adobe Illustrator 28.7.1, SVG Export Plug-In . SVG Version: 1.2.0 Build 142)  -->
  <g>
    <g id="Capa_1">
      <circle class="cls-5" cx="50" cy="50" r="50"/>
      <circle class="cls-7" cx="50" cy="40" r="20"/>
      <path class="cls-7" d="M25,85c0-20,50-20,50,0"/>
      <path class="cls-11" d="M35,35c0-5,30-5,30,0"/>
      <circle class="cls-11" cx="40" cy="38" r="3"/>
      <circle class="cls-11" cx="60" cy="38" r="3"/>
      <g>
        <path class="cls-8" d="M100,50c0,14.1-5.9,26.9-15.3,36-3.4,3.3-7.3,6.1-11.5,8.3-6.9,3.6-14.8,5.7-23.1,5.7s-16.2-2-23.1-5.7c-4.2-2.2-8.1-5-11.5-8.3C5.9,76.9,0,64.1,0,50,0,22.4,22.4,0,50,0s50,22.4,50,50Z"/>
        <g>
          <g>
            <path class="cls-2" d="M78.3,87.6c-.4-.7-1.1-1.2-1.6-1.9-2.2-3.4,1.8-8.3-.3-11.7-.4-.7-1.1-1.2-1.6-1.9-1.1-1.3-1.5-3.2-1-4.9.5-1.9,2-3.6,1.8-5.6-.1-1.3-1-2.4-1.5-3.6-.8-1.8-1-4-.4-5.9.6-1.9,1.9-3.6,1.9-5.6,0-2.9-2.7-5.1-3-8,0-1,.1-2,.1-3,0-2-1-4-2.5-5.3-.8-.6-1.8-1.1-2.3-2-.8-1.4-.3-3.3-1.1-4.7-1.4-2.4-5.3-1.6-7.5-3.3-1.7-1.3-2.2-3.8-4.2-4.6-.8-.3-1.7-.2-2.6.1-1.6.6-3.4.6-5,0-.9-.3-1.8-.4-2.6-.1-2,.7-2.5,3.3-4.2,4.6-2.2,1.7-6.1.9-7.5,3.3-.8,1.4-.3,3.3-1.1,4.7-.5.9-1.5,1.4-2.3,2-1.6,1.3-2.5,3.3-2.5,5.3,0,1,.2,2,.1,3-.3,2.9-3,5.1-3,8,0,2,1.3,3.7,1.9,5.6.6,1.9.5,4.1-.4,5.9-.5,1.2-1.4,2.3-1.5,3.6-.2,2,1.3,3.7,1.8,5.6.4,1.7,0,3.5-1,4.9-.5.6-1.2,1.2-1.6,1.9-2.2,3.4,1.8,8.3-.3,11.7-.4.7-1.1,1.2-1.6,1.9-.4.7-.8,1.6-.2,2.2h57.1c.5-.6.2-1.5-.2-2.2Z"/>
            <path class="cls-6" d="M84.7,86c-3.4,3.3-7.3,6.1-11.5,8.3-6.9,3.6-14.8,5.7-23.1,5.7s-16.2-2-23.1-5.7c-4.2-2.2-8.1-5-11.5-8.3,2-3,4.7-5.4,7.9-7.1.8-.5,1.7-.9,2.6-1.2l3-1.1,1.6-.6c2.3-.9,4.4-2.2,6.2-3.8,3.1-2.8,5.3-6.5,6.1-10.7l.5-2.6.4-2.1.8-4h11l.8,4,1,4.8c.2.9.5,1.8.8,2.7,1.1,3.1,3,5.8,5.4,8,1.8,1.6,3.9,2.9,6.2,3.8h.1s1.5.6,1.5.6l3,1.1c.9.3,1.8.7,2.6,1.2,3.2,1.7,5.9,4.2,7.9,7.1Z"/>
            <path class="cls-3" d="M58.1,64.2c-1.9.5-3.3.5-3.3.5,0,0-6.9,0-11.5-5.9l1.3-6.1h11l1.8,8.7c.2.9.5,1.8.8,2.7Z"/>
            <path class="cls-6" d="M68.9,37.6c0-.6-.3-1.2-.8-1.6-.4-.4-1-.5-1.6-.5s-1.1.2-1.6.5c0,0,0-2-.3-4.5-.6-5-4.8-8.8-9.8-8.8h-9.6c-5,0-9.3,3.8-9.8,8.8-.3,2.5-.3,4.5-.3,4.5-.5-.2-1-.4-1.6-.5s-1.1.1-1.6.5c-.5.4-.7,1-.8,1.6-.2,1.2.1,2.5.8,3.6.7,1,1.7,1.8,3,2.1,2.1,15,15.1,15,15.1,15,0,0,12.9,0,15.1-15,1.2-.3,2.3-1.1,3-2.1s1-2.3.8-3.6Z"/>
          </g>
          <path class="cls-2" d="M64.2,28.3c-1.5-.7-3.1-1.4-4.6-2.1-1.7-.8-3.9-1.6-5.4-.4-1.2.9-1.5,2.8-2.7,3.7-2.3,1.6-5.8-1.3-8.2.2-1.6,1-1.7,3.4-2.9,4.8-1,1.1-2.6,1.5-3.7,2.5-1.7,1.6-1.6,4.3-1.4,6.6.2,2.3.2,5-1.6,6.5-1.7-.1-2.7-1.5-3.2-3.1-1.4-4.2-.2-8.7,1.3-12.8,1.2-3.3,2.6-6.6,5-9.1,4.7-5,12.3-6.3,19-5.1,2.2.4,4.4,1.1,6.1,2.5,1.6,1.4,2.3,3.7,2.3,5.8Z"/>
          <path class="cls-9" d="M73.1,94.3c-6.9,3.6-14.8,5.7-23.1,5.7s-16.2-2-23.1-5.7c.4-1.3.7-2.6.9-3.8,0-.2,0-.4.1-.7,1-5.4,1-10.5.9-13.3l1.6-.6c2.3-.9,4.4-2.2,6.2-3.8-1.2,17.5,13.4,14.9,13.4,14.9,0,0,14.7,2.6,13.4-14.9,1.8,1.6,3.9,2.9,6.2,3.8h.1s1.5.6,1.5.6c0,2.8,0,7.9.9,13.3.3,1.5.6,3,1,4.5Z"/>
          <path class="cls-1" d="M73.1,94.3c-6.9,3.6-14.8,5.7-23.1,5.7s-16.2-2-23.1-5.7c.4-1.3.7-2.6.9-3.8.6-.3,1.2-.5,1.7-.7,4.5-1.5,8.7-1.1,12,0,4.7,1.5,7.8,4.2,7.8,4.2,3-2.6,5.9-3.8,8.4-4.2,1.2-.2,2.4-.2,3.5,0,4.8.7,7.8,4.2,7.8,4.2-.2-1.5-.3-2.9-.4-4.2-.4-6.5.5-11.3,1.2-13.9l1.5.6c0,2.8,0,7.9.9,13.3.3,1.5.6,3,1,4.5Z"/>
          <g>
            <path class="cls-3" d="M49.3,38.1v8.8h1.5c2.6,0-1-7.8-1.5-8.8Z"/>
            <g>
              <g>
                <path class="cls-2" d="M60.2,34.6c-2.1-1-4.4-1.2-6.5-.3-.9.4-.5,1.9.4,1.5,1.8-.7,3.6-.7,5.3.2.9.4,1.7-.9.8-1.3Z"/>
                <path class="cls-10" d="M58.3,37.4c-.5-.8-1.5-.8-1.5-.8-.8,0-1.5.7-1.5,1.5s.7,1.5,1.5,1.5.3,0,.5,0h0s0,0,0,0c0,0,0,0,.1,0,1.3-.6,1.4-2,1.4-2-.3.2-.6,0-.6,0Z"/>
              </g>
              <g>
                <path class="cls-2" d="M39.9,34.6c2.1-1,4.4-1.2,6.5-.3.9.4.5,1.9-.4,1.5-1.8-.7-3.6-.7-5.3.2-.9.4-1.7-.9-.8-1.3Z"/>
                <path class="cls-10" d="M41.7,37.4c.5-.8,1.5-.8,1.5-.8.8,0,1.5.7,1.5,1.5s-.7,1.5-1.5,1.5-.3,0-.5,0h0s0,0,0,0c0,0,0,0-.1,0-1.3-.6-1.4-2-1.4-2,.3.2.6,0,.6,0Z"/>
              </g>
            </g>
            <path class="cls-4" d="M45.3,50.1c.5,1.9,2.4,3.3,4.7,3.3s4.2-1.4,4.7-3.3h-9.5Z"/>
          </g>
        </g>
      </g>
    </g>
  </g>
</svg>